<svg viewBox="0 0 24 24" fill="none" xmlns="http://www.w3.org/2000/svg">
    <g clip-path="url(#clip0_1034_4141)">
        <path fill-rule="evenodd" clip-rule="evenodd"
            d="M12.37 18.73C12.4845 18.7056 12.5923 18.6569 12.6864 18.5873C12.7805 18.5176 12.8586 18.4287 12.9154 18.3264C12.9723 18.2241 13.0065 18.1108 13.0159 17.9941C13.0254 17.8775 13.0097 17.7601 12.97 17.65C12.9023 17.5002 12.7926 17.3732 12.6541 17.2844C12.5157 17.1957 12.3544 17.149 12.19 17.15C11.9846 17.1488 11.7861 17.2238 11.6328 17.3605C11.4795 17.4972 11.3823 17.6859 11.36 17.89C11.3627 18.0146 11.392 18.137 11.4461 18.2492C11.5002 18.3614 11.5777 18.4607 11.6735 18.5403C11.7692 18.6199 11.881 18.6781 12.0011 18.7108C12.1213 18.7436 12.2471 18.7501 12.37 18.73Z"
            fill="black" />
        <path fill-rule="evenodd" clip-rule="evenodd"
            d="M4.92 5.25002C4.71197 5.24882 4.5109 5.32486 4.35571 5.46342C4.20053 5.60197 4.10229 5.79318 4.08 6.00002C4.08426 6.12269 4.11442 6.24307 4.16851 6.35325C4.2226 6.46343 4.29939 6.56092 4.39384 6.63931C4.48829 6.7177 4.59825 6.77522 4.71651 6.80809C4.83477 6.84096 4.95865 6.84843 5.08 6.83002C5.19708 6.80958 5.30822 6.76363 5.40555 6.69542C5.50288 6.62722 5.58401 6.53843 5.64318 6.43536C5.70235 6.33229 5.73811 6.21746 5.74793 6.09902C5.75775 5.98058 5.74139 5.86143 5.7 5.75002C5.63229 5.60015 5.52256 5.47315 5.38411 5.3844C5.24567 5.29565 5.08445 5.24897 4.92 5.25002Z"
            fill="black" />
        <path fill-rule="evenodd" clip-rule="evenodd"
            d="M7.51 5.25001C7.30306 5.24905 7.10321 5.32543 6.94967 5.46417C6.79612 5.60292 6.69994 5.79402 6.68 6.00001C6.68425 6.12268 6.71442 6.24306 6.76851 6.35324C6.8226 6.46342 6.89939 6.56091 6.99384 6.6393C7.08828 6.7177 7.19825 6.77522 7.31651 6.80808C7.43477 6.84095 7.55865 6.84842 7.68 6.83001C7.79617 6.8087 7.90619 6.76192 8.00214 6.69305C8.09809 6.62417 8.17761 6.53491 8.23497 6.43166C8.29233 6.32841 8.32611 6.21374 8.3339 6.09588C8.34169 5.97803 8.32328 5.85991 8.28 5.75001C8.21299 5.6017 8.10481 5.47574 7.96831 5.38711C7.83182 5.29847 7.67275 5.25089 7.51 5.25001Z"
            fill="black" />
        <path fill-rule="evenodd" clip-rule="evenodd"
            d="M11.84 16.25C11.8821 16.2463 11.923 16.2342 11.9604 16.2146C11.9978 16.1949 12.031 16.168 12.0579 16.1355C12.0849 16.1029 12.1052 16.0654 12.1175 16.025C12.1299 15.9846 12.1341 15.9421 12.13 15.9C12.13 15.12 12.24 14.34 12.25 13.55C12.25 13.09 12.25 12.63 12.2 12.17C12.1602 11.484 12.1602 10.7961 12.2 10.11C12.2085 10.0634 12.2078 10.0156 12.1979 9.96924C12.1879 9.92291 12.1689 9.87898 12.142 9.83998C12.1151 9.80098 12.0807 9.76767 12.0409 9.74194C12.0011 9.71622 11.9566 9.69858 11.91 9.69004C11.8634 9.68151 11.8155 9.68224 11.7692 9.69219C11.7229 9.70215 11.6789 9.72113 11.6399 9.74806C11.6009 9.77499 11.5676 9.80934 11.5419 9.84914C11.5162 9.88894 11.4985 9.93343 11.49 9.98004C11.2962 10.6706 11.1624 11.3765 11.09 12.09V13C11.0934 13.3013 11.1168 13.6019 11.16 13.9C11.25 14.6 11.43 15.27 11.57 15.9C11.5613 15.9819 11.5846 16.064 11.6349 16.1292C11.6851 16.1943 11.7586 16.2376 11.84 16.25Z"
            fill="black" />
        <path fill-rule="evenodd" clip-rule="evenodd"
            d="M7.8 19.53C7.7032 19.4877 7.6028 19.4543 7.5 19.43C7.39386 19.4151 7.28615 19.4151 7.18 19.43C7.14347 19.4255 7.10653 19.4255 7.07 19.43C7.07974 19.2935 7.07974 19.1565 7.07 19.02C7.02217 18.8636 6.96541 18.71 6.9 18.56H7.06C7.13558 18.5494 7.20951 18.5293 7.28 18.5C7.34634 18.4727 7.40996 18.4393 7.47 18.4C8.18 17.95 8.25 17.9 8.22 17.67C8.19 17.44 8.06 17.25 7.12 17.31C7.02356 17.3108 6.92829 17.3312 6.84 17.37C6.75315 17.3993 6.67196 17.4433 6.6 17.5C6.54877 17.5426 6.50485 17.5933 6.47 17.65C6.29592 17.4108 6.09456 17.1926 5.87 17C6.18634 16.7152 6.40353 16.3368 6.49 15.92C6.53747 15.632 6.51795 15.337 6.43298 15.0578C6.348 14.7786 6.19984 14.5227 6 14.31C5.87889 14.2031 5.74444 14.1124 5.6 14.04C5.6322 14.0323 5.66271 14.0188 5.69 14L5.75 13.93V13.8C5.82023 13.7309 5.90593 13.6794 6 13.65C6.04675 13.6601 6.09507 13.6605 6.14199 13.6512C6.1889 13.6419 6.23341 13.6231 6.27277 13.5959C6.31213 13.5687 6.3455 13.5338 6.37082 13.4932C6.39614 13.4526 6.41288 13.4073 6.42 13.36C6.49 12.93 5.76 12.64 5.08 12.93C4.9904 12.9758 4.9119 13.0407 4.85 13.12C4.75344 13.2169 4.6844 13.3377 4.65 13.47C4.65 13.47 4.65 13.56 4.65 13.61C4.43546 13.5714 4.21799 13.5513 4 13.55C3.9 13.55 3.81 13.55 3.71 13.61C3.61 13.67 3.71 13.52 3.71 13.48C3.67528 13.375 3.61715 13.2793 3.54 13.2C3.4873 13.1419 3.42671 13.0914 3.36 13.05C3.07 12.91 2.16 12.68 2.07 13.2C2.05544 13.2953 2.07864 13.3925 2.13467 13.471C2.19071 13.5494 2.27514 13.6029 2.37 13.62C2.53 13.7 2.53 13.87 2.62 13.99C2.34863 14.1407 2.10782 14.3408 1.91 14.58C1.71227 14.8133 1.58551 15.0983 1.54475 15.4014C1.50399 15.7044 1.55093 16.0128 1.68 16.29C1.80382 16.5297 1.97485 16.7418 2.18279 16.9137C2.39074 17.0855 2.6313 17.2136 2.89 17.29C3.04668 17.3377 3.20733 17.3711 3.37 17.39C3.52317 17.4 3.67683 17.4 3.83 17.39C3.89918 17.3661 3.95881 17.3205 4 17.26C4.02442 17.3346 4.07319 17.3988 4.13847 17.4423C4.20376 17.4858 4.28178 17.5062 4.36 17.5C4.60941 17.5003 4.85792 17.4701 5.1 17.41C5.16861 17.3807 5.2354 17.3473 5.3 17.31C5.7277 17.8306 5.97351 18.4768 6 19.15C6.00689 19.4564 5.97326 19.7624 5.9 20.06C5.82821 20.349 5.70637 20.6231 5.54 20.87C5.35374 21.1362 5.12778 21.3723 4.87 21.57C4.58206 21.7754 4.28147 21.9624 3.97 22.13C3.59682 21.8128 3.26129 21.4538 2.97 21.06C2.73547 20.7523 2.54061 20.4164 2.39 20.06C2.22303 19.6835 2.15752 19.2697 2.2 18.86C2.2 18.86 2.2 18.86 2.26 18.79C2.26971 18.7405 2.26971 18.6895 2.26 18.64C2.24553 18.5305 2.24553 18.4195 2.26 18.31C2.30783 18.2262 2.321 18.127 2.29671 18.0336C2.27243 17.9402 2.2126 17.8599 2.13 17.81C2.04769 17.7627 1.95001 17.7498 1.85824 17.7741C1.76647 17.7985 1.68803 17.8581 1.64 17.94C1.64 18 1.58 18.05 1.55 18.1C1.51482 18.0744 1.47808 18.051 1.44 18.03C1.35099 18.0111 1.25901 18.0111 1.17 18.03C1.07729 18.0147 0.982708 18.0147 0.890001 18.03C0.0200014 18.31 -0.0199986 18.58 0.0200014 18.75C0.0600014 18.92 -0.0399985 19.06 1.13 19.21C1.07518 19.5176 1.07518 19.8324 1.13 20.14C1.05732 20.1815 0.990131 20.2318 0.930001 20.29C0.180001 20.98 0.400001 21.2 0.450001 21.29C0.500001 21.38 0.680001 21.48 1.45 21.29H1.6C1.73574 21.4998 1.88966 21.6972 2.06 21.88C2.10564 21.9065 2.14911 21.9366 2.19 21.97C2.1012 22.0126 2.02273 22.0741 1.96 22.15C1.89182 22.2212 1.83453 22.3021 1.79 22.39C1.35 23.23 1.48 23.39 1.64 23.54C1.8 23.69 2.83 23 2.84 23C2.90186 22.9444 2.95571 22.8804 3 22.81C3.04484 22.734 3.0817 22.6536 3.11 22.57C3.37836 22.7182 3.65949 22.8421 3.95 22.94C4.02699 22.9739 4.11422 22.9761 4.19282 22.9462C4.27142 22.9162 4.33507 22.8565 4.37 22.78C4.37 22.78 4.37 22.78 4.37 22.73C4.69756 22.6201 5.01533 22.483 5.32 22.32C5.40171 22.4303 5.49199 22.5339 5.59 22.63C5.65276 22.6791 5.71968 22.7226 5.79 22.76L6.01 22.83C6.8 23.01 6.92 23.02 7.01 22.83C7.1 22.64 7.27 22.53 6.49 21.83C6.42344 21.7679 6.34956 21.7142 6.27 21.67L6.37 21.59C6.63349 21.2991 6.83734 20.9594 6.97 20.59C7.05361 20.6258 7.14076 20.6526 7.23 20.67H7.5C8.38 20.67 8.5 20.67 8.61 20.44C8.72 20.21 8.7 20 7.8 19.53ZM4.8 16.68C4.65038 16.7286 4.49628 16.7621 4.34 16.78C4.28428 16.7838 4.23014 16.8002 4.18165 16.8279C4.13316 16.8556 4.09157 16.8939 4.06 16.94C4.03609 16.8831 3.99572 16.8345 3.94405 16.8007C3.89238 16.7668 3.83177 16.7492 3.77 16.75L3.41 16.7L3.1 16.59C2.95705 16.5282 2.82829 16.4377 2.72166 16.3242C2.61502 16.2107 2.53278 16.0765 2.48 15.93C2.4532 15.8134 2.4596 15.6917 2.49849 15.5786C2.53737 15.4654 2.60719 15.3655 2.7 15.29C2.86424 15.1212 3.06174 14.9884 3.28 14.9C3.50714 14.8021 3.75273 14.7544 4 14.76C4.23905 14.7575 4.4775 14.7844 4.71 14.84C4.90556 14.8812 5.08774 14.9706 5.24 15.1C5.33725 15.1797 5.41488 15.2806 5.4669 15.3951C5.51892 15.5095 5.54393 15.6344 5.54 15.76C5.53593 15.9018 5.50172 16.0412 5.43965 16.1688C5.37758 16.2963 5.28907 16.4093 5.18 16.5C5.07048 16.585 4.94448 16.6463 4.81 16.68H4.8Z"
            fill="black" />
        <path fill-rule="evenodd" clip-rule="evenodd"
            d="M23.92 2.91002C23.86 2.84002 23.7 2.58002 22.81 3.15002C22.7365 3.19819 22.6694 3.25529 22.61 3.32002C22.6139 3.28012 22.6139 3.23993 22.61 3.20002C22.3819 2.86848 22.0894 2.58621 21.75 2.37002C21.75 2.37002 21.75 2.37002 21.75 2.32002C21.8033 2.24944 21.847 2.1721 21.88 2.09002C21.9144 2.00835 21.9445 1.92489 21.97 1.84002C22.22 0.950025 22.24 0.840025 22.03 0.700025C21.82 0.560025 21.62 0.530025 20.96 1.30002C20.8887 1.37618 20.8312 1.46416 20.79 1.56002C20.7375 1.65348 20.7004 1.75478 20.68 1.86002C20.6849 1.89652 20.6849 1.93352 20.68 1.97002C20.5535 1.91955 20.423 1.87942 20.29 1.85002C20.1291 1.85679 19.9688 1.87349 19.81 1.90002V1.74002C19.82 1.66703 19.82 1.59302 19.81 1.52002C19.8007 1.44418 19.7805 1.37007 19.75 1.30002C19.51 0.500025 19.48 0.420025 19.25 0.390025C19.02 0.360025 18.8 0.390025 18.62 1.39002C18.6047 1.48273 18.6047 1.57732 18.62 1.67002C18.6246 1.76277 18.6449 1.85407 18.68 1.94002C18.68 2.01002 18.76 2.05002 18.79 2.11002C18.4927 2.20784 18.21 2.34578 17.95 2.52002C17.7577 2.14057 17.4495 1.83231 17.07 1.64002C16.8095 1.52682 16.527 1.47345 16.2432 1.48383C15.9594 1.49421 15.6815 1.56809 15.43 1.70002C15.2987 1.78948 15.1779 1.89347 15.07 2.01002C15.0738 1.98014 15.0738 1.94991 15.07 1.92002V1.85002C15.07 1.85002 14.96 1.85002 14.95 1.77002C14.86 1.41002 15.01 1.21002 14.71 1.08002C14.41 0.950025 13.85 1.53002 13.95 2.26002C13.9735 2.35648 14.0142 2.44793 14.07 2.53002C14.1374 2.65208 14.2379 2.75261 14.36 2.82002C14.4232 2.82469 14.4868 2.82469 14.55 2.82002C14.4371 3.0187 14.3401 3.22601 14.26 3.44002C14.25 3.53978 14.25 3.64027 14.26 3.74002H14.13C14.0178 3.75204 13.9091 3.78602 13.81 3.84002C13.7389 3.87508 13.6746 3.92248 13.62 3.98002C13.41 4.21002 12.96 4.98002 13.43 5.25002C13.72 5.39002 13.66 5.19002 14.34 4.93002C14.4144 5.23086 14.5432 5.51555 14.72 5.77002C14.8946 6.02015 15.137 6.21516 15.4187 6.33209C15.7004 6.44903 16.0096 6.48301 16.31 6.43002C16.5737 6.37256 16.8231 6.26231 17.0431 6.10592C17.263 5.94953 17.4491 5.75023 17.59 5.52002C17.674 5.38046 17.7443 5.23311 17.8 5.08002C17.8583 4.93822 17.9019 4.79077 17.93 4.64002C17.9433 4.59197 17.9447 4.54143 17.9343 4.49268C17.9238 4.44394 17.9018 4.39843 17.87 4.36002C17.9493 4.35489 18.0247 4.32365 18.0844 4.2712C18.1441 4.21874 18.1847 4.14801 18.2 4.07002C18.2633 3.82835 18.2969 3.57984 18.3 3.33002C18.3039 3.25674 18.3039 3.18331 18.3 3.11002C18.8724 2.89602 19.4957 2.85771 20.09 3.00002C20.3891 3.06921 20.6757 3.18387 20.94 3.34002C21.2008 3.47668 21.4319 3.6636 21.62 3.89002C21.8362 4.13549 22.0087 4.41623 22.13 4.72002C22.2527 5.04706 22.3562 5.38096 22.44 5.72002C22.0369 5.99705 21.6042 6.22846 21.15 6.41002C20.8016 6.55002 20.4397 6.6539 20.07 6.72002C19.6548 6.77897 19.2314 6.73078 18.84 6.58002C18.84 6.58002 18.84 6.58002 18.84 6.52002C18.8006 6.51028 18.7594 6.51028 18.72 6.52002C18.6031 6.47846 18.4895 6.42832 18.38 6.37002C18.3473 6.33521 18.3078 6.30747 18.2639 6.28851C18.2201 6.26955 18.1728 6.25976 18.125 6.25976C18.0772 6.25976 18.0299 6.26955 17.9861 6.28851C17.9422 6.30747 17.9027 6.33521 17.87 6.37002C17.8364 6.40347 17.8098 6.44321 17.7916 6.48697C17.7735 6.53073 17.7641 6.57764 17.7641 6.62502C17.7641 6.67241 17.7735 6.71932 17.7916 6.76308C17.8098 6.80684 17.8364 6.84658 17.87 6.88002C17.9091 6.92439 17.9527 6.9646 18 7.00002C18 7.00002 17.92 7.00002 17.89 7.10002C17.8375 7.17545 17.8001 7.26036 17.78 7.35002C17.7654 7.43944 17.7654 7.53061 17.78 7.62002C17.78 8.54002 18.07 8.62002 18.25 8.62002C18.25 8.62002 18.54 8.76003 18.98 7.62002C19.2704 7.73598 19.5778 7.80355 19.89 7.82002C19.9111 7.90308 19.9413 7.98356 19.98 8.06003C20.46 8.96002 20.73 8.81002 20.81 8.78002C20.89 8.75002 21.05 8.61003 21.1 7.78003C21.1048 7.72346 21.1048 7.66659 21.1 7.61002C21.3415 7.54806 21.5736 7.45388 21.79 7.33002C21.832 7.29919 21.8721 7.26579 21.91 7.23002C21.9397 7.32107 21.98 7.40833 22.03 7.49002C22.0853 7.57302 22.1489 7.65009 22.22 7.72002C22.92 8.36002 23.15 8.28002 23.29 8.16002C23.43 8.04002 23 7.00002 23 7.00002C22.9591 6.93267 22.9122 6.86908 22.86 6.81002C22.795 6.74743 22.7248 6.69055 22.65 6.64002C22.866 6.41916 23.0602 6.17806 23.23 5.92002C23.2869 5.85894 23.3186 5.77853 23.3186 5.69502C23.3186 5.61152 23.2869 5.53111 23.23 5.47002H23.17C23.1496 5.13292 23.0994 4.79829 23.02 4.47002C23.1504 4.41826 23.2773 4.35814 23.4 4.29002C23.4614 4.24194 23.5183 4.18839 23.57 4.13002C23.6158 4.06703 23.656 4.0001 23.69 3.93002C24 3.21002 24.07 3.09002 23.92 2.91002ZM17.2 4.50002C17.1679 4.6125 17.1209 4.72014 17.06 4.82002C17.0119 4.92285 16.9478 5.01736 16.87 5.10002C16.7748 5.22196 16.6555 5.32305 16.5196 5.39701C16.3837 5.47098 16.2341 5.51625 16.08 5.53003C15.9605 5.52535 15.8446 5.48727 15.7457 5.4201C15.6467 5.35293 15.5685 5.25937 15.52 5.15002C15.3997 4.94911 15.3216 4.72574 15.2907 4.4936C15.2597 4.26146 15.2765 4.02545 15.34 3.80002C15.3942 3.56858 15.4818 3.34625 15.6 3.14002C15.6898 2.95633 15.8281 2.8007 16 2.69002C16.1026 2.61578 16.221 2.56631 16.3459 2.54549C16.4708 2.52467 16.5989 2.53307 16.72 2.57002C16.8548 2.60984 16.9797 2.67762 17.0865 2.76894C17.1933 2.86026 17.2797 2.97307 17.34 3.10002C17.3888 3.22148 17.4192 3.34957 17.43 3.48002C17.4449 3.63634 17.4449 3.79371 17.43 3.95002C17.4181 4.00511 17.4202 4.06227 17.4359 4.11639C17.4516 4.1705 17.4805 4.21986 17.52 4.26002C17.4485 4.26255 17.3795 4.2869 17.3223 4.32981C17.2651 4.37272 17.2224 4.43212 17.2 4.50002Z"
            fill="black" />
        <path fill-rule="evenodd" clip-rule="evenodd"
            d="M2.29 12.77C2.33203 12.7687 2.37339 12.7592 2.41172 12.7419C2.45005 12.7246 2.4846 12.6999 2.51339 12.6693C2.54218 12.6386 2.56465 12.6026 2.57951 12.5633C2.59437 12.5239 2.60133 12.4821 2.6 12.44C2.6 11.34 2.78 10.25 2.85 9.15003V8.41003H7.36C8.36 8.41003 9.29 8.32003 10.26 8.28003C11.71 8.21003 13.15 8.14003 14.6 8.19003C14.6473 8.19397 14.6949 8.18856 14.74 8.17411C14.7852 8.15965 14.8271 8.13645 14.8633 8.1058C14.8996 8.07516 14.9294 8.03768 14.9511 7.99551C14.9728 7.95334 14.9861 7.90731 14.99 7.86003C14.9939 7.81275 14.9885 7.76516 14.9741 7.71998C14.9596 7.67479 14.9364 7.6329 14.9058 7.59668C14.8751 7.56047 14.8377 7.53064 14.7955 7.50891C14.7533 7.48718 14.7073 7.47397 14.66 7.47003C13.2342 7.27609 11.7986 7.16258 10.36 7.13003H8.52C7.9 7.13003 7.3 7.19003 6.69 7.25003C5.41 7.38003 4.16 7.57003 2.9 7.74003C3 7.48003 3 7.24003 3 7.00003C3.06731 6.23461 3.19436 5.47564 3.38 4.73003C3.38 4.73003 3.38 4.68003 3.38 4.65003C3.6908 4.59425 4.00472 4.55751 4.32 4.54003H6.6C7.17 4.54003 7.74 4.48003 8.31 4.43003C8.88 4.38003 9.43 4.30003 10 4.27003C10.57 4.24003 11 4.27003 11.47 4.27003C11.5655 4.27799 11.6602 4.24769 11.7333 4.1858C11.8065 4.12391 11.852 4.03551 11.86 3.94003C11.868 3.84455 11.8377 3.74982 11.7758 3.67668C11.7139 3.60354 11.6255 3.55799 11.53 3.55003C10.5373 3.3916 9.53499 3.30139 8.53 3.28003C7.86 3.28003 7.19 3.34003 6.53 3.38003C5.87 3.42003 5.21 3.57003 4.53 3.70003C3.12 4.00003 2.47 3.92003 1.84 7.27003C1.77 7.68003 1.72 8.08003 1.69 8.49003C1.66502 8.89631 1.66502 9.30375 1.69 9.71003C1.69 10.65 1.87 11.57 1.99 12.51C2.00344 12.5808 2.04036 12.645 2.09481 12.6922C2.14925 12.7394 2.21803 12.7668 2.29 12.77Z"
            fill="black" />
        <path fill-rule="evenodd" clip-rule="evenodd"
            d="M21.72 11.76C21.64 11.19 21.55 10.62 21.43 10.06C21.4252 10.0182 21.4119 9.97781 21.3909 9.94129C21.3699 9.90477 21.3417 9.87291 21.3081 9.84764C21.2744 9.82238 21.2359 9.80424 21.195 9.79434C21.154 9.78444 21.1115 9.78298 21.07 9.79005C20.9867 9.80243 20.9116 9.84717 20.861 9.91457C20.8105 9.98197 20.7886 10.0666 20.8 10.15V11.39C20.8 12.39 20.8 13.39 20.73 14.33C20.73 15.05 20.78 15.75 20.82 16.44C20.86 17.13 20.9 17.83 20.9 18.53C20.9 19.23 20.9 19.67 20.83 20.25C20.7434 20.215 20.6466 20.215 20.56 20.25C20.1261 20.3835 19.6809 20.4772 19.23 20.53C18.52 20.62 17.81 20.63 17.11 20.65L15.54 20.71C14.74 20.71 13.95 20.76 13.16 20.8C11.82 20.88 10.49 21 9.16 21.16C9.07513 21.16 8.99374 21.1938 8.93373 21.2538C8.87371 21.3138 8.84 21.3952 8.84 21.48C8.84 21.5649 8.87371 21.6463 8.93373 21.7063C8.99374 21.7663 9.07513 21.8 9.16 21.8C10.77 21.8 12.35 21.97 13.95 21.97C15.0299 21.9565 16.1082 21.8831 17.18 21.75C17.9 21.64 18.63 21.55 19.35 21.38C20.35 21.16 21.46 20.71 21.51 20.38C21.7487 19.3837 21.9125 18.3709 22 17.35C22 16.84 22.05 16.35 22.05 15.81C22.05 15.27 22.05 14.81 21.99 14.28C21.89 13.44 21.82 12.6 21.72 11.76Z"
            fill="black" />
    </g>
    <defs>
        <clipPath id="clip0_1034_4141">
            <rect width="24" height="24" fill="white" />
        </clipPath>
    </defs>
</svg>
    