<svg viewBox="0 0 24 24" fill="none" xmlns="http://www.w3.org/2000/svg">
    <g clip-path="url(#clip0_3005_1459)">
        <path fill-rule="evenodd" clip-rule="evenodd"
            d="M23.63 7.42001C23.51 6.25001 23.55 3.84001 22.73 3.19001C20.81 1.68001 16.59 2.08001 13.92 2.00001C10.44 1.85001 6.73 2.14001 3.29999 2.24001C3.22107 2.25369 3.14952 2.2948 3.09794 2.35609C3.04637 2.41738 3.01809 2.49491 3.01809 2.57501C3.01809 2.65511 3.04637 2.73263 3.09794 2.79392C3.14952 2.85521 3.22107 2.89632 3.29999 2.91001C6.76999 2.86001 10.37 2.62001 13.87 2.82001C16.34 2.97001 20.52 2.68001 22.12 3.98001C22.52 4.31001 22.53 6.71001 22.61 7.56001C22.959 10.5485 22.9858 13.5658 22.69 16.56C22.6507 17.5735 22.4998 18.5796 22.24 19.56C19.82 20.96 2.55999 21.94 1.52999 20.11C1.14167 18.5957 0.923648 17.0427 0.879995 15.48C0.66445 12.829 0.704635 10.1633 0.999995 7.52001C1.07999 7.52001 8.33 7.85001 13.58 7.76001C15.91 7.76001 18.26 7.63001 20.34 7.55001C20.4275 7.55001 20.5115 7.51524 20.5733 7.45335C20.6352 7.39146 20.67 7.30753 20.67 7.22001C20.67 7.13248 20.6352 7.04855 20.5733 6.98666C20.5115 6.92477 20.4275 6.89001 20.34 6.89001C12.63 6.73001 7.44999 6.46001 1.03999 6.94001C1.14999 5.56001 1.51999 3.02001 1.41999 2.94001C1.36392 2.88504 1.28852 2.85425 1.20999 2.85425C1.13147 2.85425 1.05607 2.88504 0.999995 2.94001C0.629995 3.35001 0.709995 4.71001 0.639995 5.19001C0.569995 5.67001 0.499995 6.26001 0.439995 6.79001C0.0437741 9.65185 -0.076779 12.5451 0.0799949 15.43C0.105815 17.1166 0.327297 18.7945 0.739995 20.43C2.19999 23.13 17.98 21.89 21.68 20.86C23.13 20.46 23.37 20.06 23.55 18.91C24.1242 15.1034 24.1512 11.2342 23.63 7.42001Z"
            fill="black" />
        <path fill-rule="evenodd" clip-rule="evenodd"
            d="M4.53999 5.25001C4.61981 5.08343 4.64249 4.89518 4.60453 4.7144C4.56657 4.53363 4.47008 4.37041 4.32999 4.25001C3.55999 3.84001 2.61999 4.64001 3.32999 5.35001C3.41425 5.42662 3.51338 5.48508 3.6212 5.52174C3.72903 5.5584 3.84324 5.57247 3.95674 5.56309C4.07023 5.55371 4.18059 5.52108 4.28093 5.46722C4.38127 5.41335 4.46945 5.33942 4.53999 5.25001Z"
            fill="black" />
        <path fill-rule="evenodd" clip-rule="evenodd"
            d="M7.16999 5.00001C7.30999 4.86001 7.35999 4.16001 6.96999 4.00001C6.19999 3.59001 5.25999 4.39001 5.96999 5.09001C6.05275 5.16695 6.15051 5.22595 6.25714 5.26332C6.36377 5.30069 6.47698 5.31562 6.58965 5.30716C6.70233 5.29871 6.81204 5.26707 6.91191 5.21421C7.01178 5.16136 7.09964 5.08843 7.16999 5.00001Z"
            fill="black" />
        <path fill-rule="evenodd" clip-rule="evenodd"
            d="M10.05 5.00001C10.1316 4.83379 10.1552 4.64507 10.1171 4.46387C10.0791 4.28267 9.98153 4.11939 9.84 4.00001C9.07 3.59001 8.13 4.39001 8.84 5.09001C8.92291 5.1686 9.02133 5.22899 9.12894 5.26732C9.23655 5.30565 9.35099 5.32107 9.46491 5.3126C9.57883 5.30412 9.68972 5.27194 9.79047 5.21811C9.89123 5.16428 9.97963 5.09 10.05 5.00001Z"
            fill="black" />
        <path fill-rule="evenodd" clip-rule="evenodd"
            d="M11.7143 10.9346C11.8114 10.9443 11.9088 10.9182 11.988 10.8611C12.0672 10.804 12.1228 10.7199 12.1443 10.6246C12.1527 10.5227 12.1207 10.4216 12.0552 10.343C11.9897 10.2644 11.896 10.2147 11.7943 10.2046C10.7742 10.0294 9.73656 9.97899 8.70429 10.0546C8.09866 10.1072 7.49729 10.2008 6.90429 10.3346C6.01429 10.5446 5.16429 10.8346 4.31429 11.0446C4.26952 11.0496 4.22617 11.0634 4.18678 11.0852C4.14739 11.107 4.11273 11.1365 4.08482 11.1719C4.0569 11.2072 4.03629 11.2478 4.02419 11.2912C4.01208 11.3345 4.00871 11.3799 4.01429 11.4246C4.02674 11.5159 4.07467 11.5985 4.14767 11.6547C4.22068 11.7109 4.31288 11.736 4.40429 11.7246C5.40429 11.7246 6.40429 11.6646 7.40429 11.5446L8.05429 11.4446C8.38462 12.2794 8.50481 13.1825 8.40429 14.0746C8.35163 14.5 8.20841 14.9092 7.98429 15.2746C7.76362 15.6379 7.46257 15.9458 7.10429 16.1746C6.94185 16.2952 6.76763 16.3991 6.58429 16.4846C6.43157 16.5643 6.26546 16.6152 6.09429 16.6346C5.91387 16.634 5.7348 16.6035 5.56429 16.5446C5.223 16.4205 4.88912 16.2769 4.56429 16.1146C4.47264 16.069 4.36676 16.0613 4.26948 16.0931C4.1722 16.1249 4.09132 16.1937 4.04429 16.2846C4.02036 16.3297 4.00578 16.3792 4.0014 16.4301C3.99702 16.4809 4.00294 16.5322 4.01881 16.5807C4.03468 16.6293 4.06017 16.6741 4.09375 16.7126C4.12734 16.751 4.16833 16.7823 4.21429 16.8046C4.52429 16.9946 4.83429 17.2246 5.21429 17.3946C5.4859 17.5339 5.7808 17.622 6.08429 17.6546C6.32971 17.666 6.57551 17.6424 6.81429 17.5846C7.13292 17.4978 7.44134 17.3771 7.73429 17.2246C8.1802 16.9882 8.57108 16.6602 8.88129 16.2621C9.19151 15.864 9.41404 15.4048 9.53429 14.9146C9.73676 13.6715 9.48471 12.3971 8.82429 11.3246L9.14429 11.2746C9.98972 11.0883 10.8495 10.9746 11.7143 10.9346Z"
            fill="black" />
        <path fill-rule="evenodd" clip-rule="evenodd"
            d="M16.3943 16.1346C15.865 16.4882 15.25 16.692 14.6143 16.7246C13.9797 16.7538 13.3534 16.5708 12.8343 16.2046C12.7527 16.1525 12.6547 16.1327 12.5592 16.1489C12.4638 16.165 12.3778 16.2161 12.318 16.2922C12.2581 16.3683 12.2287 16.4638 12.2354 16.5604C12.2421 16.657 12.2845 16.7476 12.3543 16.8146C12.9948 17.3342 13.7898 17.6261 14.6143 17.6446C15.4321 17.6754 16.2423 17.478 16.9543 17.0746C17.509 16.7721 17.9589 16.3083 18.2443 15.7446C18.4523 15.3078 18.4949 14.8104 18.3643 14.3446C18.2859 14.0679 18.1438 13.8134 17.9493 13.6015C17.7548 13.3896 17.5133 13.2263 17.2443 13.1246C16.4513 12.8977 15.637 12.7536 14.8143 12.6946C14.2943 12.6146 13.8143 12.4846 13.8143 11.8346C13.8143 11.7246 13.8943 11.6546 13.9843 11.5846C14.113 11.4831 14.2502 11.3928 14.3943 11.3146C14.8928 11.0398 15.4461 10.8793 16.0143 10.8446C16.5845 10.8156 17.1518 10.9435 17.6543 11.2146C17.6923 11.2384 17.7347 11.2545 17.779 11.2618C17.8232 11.2692 17.8685 11.2677 17.9122 11.2575C17.9559 11.2473 17.9971 11.2285 18.0335 11.2023C18.0699 11.176 18.1008 11.1428 18.1243 11.1046C18.1698 11.0271 18.1837 10.9351 18.1633 10.8476C18.1428 10.7601 18.0894 10.6839 18.0143 10.6346C17.419 10.2431 16.7265 10.025 16.0143 10.0046C15.3034 9.97275 14.5948 10.1063 13.9443 10.3946C13.6099 10.5253 13.3017 10.715 13.0343 10.9546C12.911 11.0756 12.8138 11.2205 12.7484 11.3804C12.6831 11.5403 12.651 11.7119 12.6543 11.8846C12.6407 12.1625 12.6883 12.44 12.7937 12.6974C12.8991 12.9549 13.0597 13.1861 13.2643 13.3746C14.0258 13.8698 14.9159 14.1306 15.8243 14.1246C16.1656 14.1417 16.5026 14.2091 16.8243 14.3246C16.922 14.3536 17.0116 14.4048 17.0862 14.4741C17.1608 14.5435 17.2183 14.6293 17.2543 14.7246C17.2869 14.843 17.2958 14.9668 17.2803 15.0886C17.2649 15.2105 17.2254 15.3281 17.1643 15.4346C16.9707 15.7291 16.7059 15.9699 16.3943 16.1346Z"
            fill="black" />
    </g>
    <defs>
        <clipPath id="clip0_3005_1459">
            <rect width="24" height="24" fill="white" />
        </clipPath>
    </defs>
</svg>
    