<svg viewBox="0 0 24 24" fill="none" xmlns="http://www.w3.org/2000/svg">
    <g clip-path="url(#clip0_1034_4546)">
        <path fill-rule="evenodd" clip-rule="evenodd"
            d="M2.63 2.16C3.58979 1.96468 4.56223 1.83769 5.54 1.78C7.02 1.68 8.54 1.69 9.99 1.71C11.44 1.73 12.67 1.71 13.99 1.71C14.89 1.71 15.78 1.71 16.67 1.78C18.1 1.84 19.54 1.96 20.99 2.11V5.39C20.99 6.08 21.05 6.76 21.09 7.45C21.14 8.45 21.21 9.52 21.21 10.56C21.2012 10.613 21.204 10.6673 21.2183 10.719C21.2326 10.7708 21.258 10.8189 21.2927 10.8599C21.3275 10.9008 21.3707 10.9338 21.4195 10.9563C21.4682 10.9789 21.5213 10.9906 21.575 10.9906C21.6287 10.9906 21.6818 10.9789 21.7305 10.9563C21.7793 10.9338 21.8225 10.9008 21.8572 10.8599C21.892 10.8189 21.9174 10.7708 21.9317 10.719C21.946 10.6673 21.9488 10.613 21.94 10.56C22.08 9.56 22.2 8.56 22.24 7.48C22.265 7.03702 22.265 6.59298 22.24 6.15C22.24 5.71 22.21 5.27 22.15 4.83C22.03 3.83 21.81 2.83 21.59 1.83C21.553 1.73226 21.4968 1.64295 21.4247 1.56737C21.3525 1.49178 21.2659 1.43147 21.17 1.39C18.9574 0.987399 16.7239 0.710289 14.48 0.559998C13 0.469998 11.49 0.469998 10 0.499998C8.51 0.529998 7 0.679998 5.45 0.899998C4.43759 1.04585 3.43555 1.25628 2.45 1.53C2.36916 1.55342 2.30032 1.60684 2.25756 1.67933C2.21481 1.75183 2.20137 1.83792 2.22 1.92C2.2291 1.96384 2.2473 2.00528 2.27343 2.04165C2.29955 2.07802 2.33302 2.1085 2.37166 2.13112C2.4103 2.15374 2.45326 2.168 2.49776 2.17297C2.54226 2.17795 2.58731 2.17353 2.63 2.16Z"
            fill="black" />
        <path fill-rule="evenodd" clip-rule="evenodd"
            d="M23.94 15.15C23.942 14.5601 23.8918 13.9711 23.79 13.39C23.7228 13.0414 23.564 12.717 23.33 12.45C23.1312 12.2637 22.8914 12.1267 22.63 12.05C22.194 11.9337 21.7492 11.8534 21.3 11.81C20.6174 11.7647 19.9326 11.7647 19.25 11.81C18.2428 11.877 17.2408 12.0073 16.25 12.2C16.1864 12.213 16.1296 12.2485 16.09 12.3C16.0694 12.2741 16.0437 12.2527 16.0144 12.2372C15.9852 12.2217 15.953 12.2125 15.92 12.21C15.8785 12.2044 15.8363 12.2074 15.7959 12.2186C15.7555 12.2298 15.7179 12.249 15.6851 12.2752C15.6524 12.3014 15.6254 12.3339 15.6056 12.3708C15.5858 12.4077 15.5737 12.4483 15.57 12.49C15.2431 14.4746 15.0526 16.4793 15 18.49C14.9972 19.8464 15.0706 21.2019 15.22 22.55C15.2342 22.6514 15.2724 22.7479 15.3316 22.8314C15.3908 22.9149 15.4691 22.983 15.56 23.03C15.738 23.1079 15.9219 23.1715 16.11 23.22L17.4 23.43C18.5474 23.54 19.7026 23.54 20.85 23.43C21.6334 23.3505 22.4013 23.1585 23.13 22.86C23.1759 22.8446 23.218 22.8198 23.2538 22.7873C23.2896 22.7548 23.3183 22.7152 23.338 22.671C23.3578 22.6269 23.3681 22.5791 23.3685 22.5307C23.3688 22.4824 23.3591 22.4344 23.34 22.39C23.4286 22.3912 23.5146 22.3605 23.5825 22.3037C23.6504 22.2468 23.6956 22.1674 23.71 22.08C23.8773 20.9337 23.9742 19.7782 24 18.62C24 17.46 24 16.29 23.94 15.15ZM20.78 22.57C19.6877 22.5837 18.5964 22.4966 17.52 22.31L16.45 22.08H16.39C16.3 21.24 16.26 20.38 16.22 19.51C16.18 18.64 16.11 17.51 16.11 16.51C16.11 15.24 16.11 13.99 16.2 12.77C16.25 12.77 16.29 12.82 16.34 12.77C17.1471 12.6842 17.9584 12.6441 18.77 12.65C19.5626 12.6525 20.3531 12.7329 21.13 12.89C21.4678 12.9414 21.8018 13.0149 22.13 13.11C22.2615 13.1325 22.3852 13.1875 22.49 13.27C22.5953 13.4383 22.654 13.6316 22.66 13.83C22.73 14.33 22.73 14.89 22.77 15.21C22.9 16.54 23.01 17.91 23.05 19.28C23.05 20.19 23.05 21.09 23 21.98C22.9962 22.0502 23.0136 22.1199 23.05 22.18C23.0011 22.1653 22.9489 22.1653 22.9 22.18C22.2172 22.4169 21.5024 22.5484 20.78 22.57Z"
            fill="black" />
        <path fill-rule="evenodd" clip-rule="evenodd"
            d="M3.81 7.06998C3.80023 7.15303 3.80023 7.23694 3.81 7.31998C3.80436 7.40656 3.80436 7.49341 3.81 7.57998C4.05 8.49998 4.22 8.52998 4.39 8.52998C4.56 8.52998 4.74 8.52998 4.97 7.52998C4.98046 7.44698 4.98046 7.36299 4.97 7.27998C4.98479 7.19731 4.98479 7.11266 4.97 7.02998C4.7 6.02998 4.42 6.11998 4.4 6.11998C4.13 6.13998 3.84 6.99998 3.81 7.06998Z"
            fill="black" />
        <path fill-rule="evenodd" clip-rule="evenodd"
            d="M18.41 7.57999C18.4204 7.49363 18.4204 7.40635 18.41 7.31999C18.4246 7.23729 18.4246 7.15269 18.41 7.06999C18.41 6.96999 18.09 6.13999 17.8 6.15999C17.8 6.15999 17.51 6.05999 17.24 7.06999C17.2302 7.15304 17.2302 7.23694 17.24 7.31999C17.2295 7.40299 17.2295 7.48698 17.24 7.56999C17.47 8.49999 17.64 8.56999 17.81 8.56999C17.98 8.56999 18.17 8.49999 18.41 7.57999Z"
            fill="black" />
        <path fill-rule="evenodd" clip-rule="evenodd"
            d="M5.76 9.83999L4.76 9.34999C4.7277 9.27476 4.66779 9.21477 4.5926 9.18237C4.51742 9.14997 4.43267 9.14763 4.3558 9.17581C4.27894 9.20399 4.2158 9.26057 4.17938 9.33389C4.14295 9.40721 4.13602 9.49171 4.16 9.56999C4.14839 9.71468 4.16634 9.86021 4.21276 9.99775C4.25917 10.1353 4.33309 10.2619 4.43 10.37C4.50558 10.4676 4.60563 10.5435 4.72 10.59C4.82199 10.644 4.9347 10.6748 5.05 10.68C5.29506 10.6942 5.54037 10.6567 5.77 10.57C5.86813 10.57 5.96224 10.531 6.03163 10.4616C6.10102 10.3922 6.14 10.2981 6.14 10.2C6.14008 10.151 6.13015 10.1025 6.11082 10.0574C6.09149 10.0124 6.06317 9.97179 6.02759 9.93809C5.99201 9.90438 5.94993 9.8783 5.90392 9.86143C5.85791 9.84456 5.80893 9.83727 5.76 9.83999Z"
            fill="black" />
        <path fill-rule="evenodd" clip-rule="evenodd"
            d="M16.47 10.57C16.6996 10.6568 16.9449 10.6942 17.19 10.68C17.3055 10.6762 17.4185 10.6454 17.52 10.59C17.6388 10.5465 17.7428 10.4702 17.82 10.37C18.0119 10.1493 18.1089 9.86182 18.09 9.57C18.1192 9.48911 18.115 9.39994 18.0784 9.32212C18.0419 9.24429 17.9759 9.18418 17.895 9.155C17.8141 9.12583 17.7249 9.12998 17.6471 9.16655C17.5693 9.20312 17.5092 9.26911 17.48 9.35L16.48 9.84C16.3836 9.83997 16.291 9.87757 16.2218 9.94481C16.1527 10.0121 16.1126 10.1036 16.11 10.2C16.1124 10.2957 16.1508 10.3869 16.2175 10.4555C16.2843 10.5241 16.3744 10.565 16.47 10.57Z"
            fill="black" />
        <path fill-rule="evenodd" clip-rule="evenodd"
            d="M5 3.65001C4.88469 3.65522 4.77198 3.68596 4.67 3.74001C4.56538 3.80335 4.47919 3.89299 4.42 4.00001C4.16 4.32001 4 5.00001 4.34 5.17001C4.37802 5.1863 4.41891 5.19482 4.46027 5.19506C4.50163 5.1953 4.54262 5.18727 4.58083 5.17142C4.61904 5.15558 4.65369 5.13225 4.68274 5.10282C4.71179 5.07338 4.73466 5.03842 4.75 5.00001L5.75 4.51001C5.79811 4.51134 5.846 4.50302 5.89084 4.48553C5.93567 4.46804 5.97655 4.44173 6.01105 4.40817C6.04554 4.3746 6.07296 4.33447 6.09167 4.29012C6.11038 4.24578 6.12002 4.19814 6.12 4.15001C6.13 3.66001 5.23 3.64001 5 3.65001Z"
            fill="black" />
        <path fill-rule="evenodd" clip-rule="evenodd"
            d="M16.47 4.49001C16.47 4.49001 17.47 4.97001 17.47 4.98001C17.4992 5.0609 17.5593 5.12689 17.6371 5.16346C17.7149 5.20003 17.8041 5.20418 17.885 5.17501C17.9659 5.14584 18.0319 5.08572 18.0684 5.0079C18.105 4.93007 18.1092 4.8409 18.08 4.76001C18.0989 4.46819 18.0019 4.1807 17.81 3.96001C17.7328 3.85983 17.6288 3.78355 17.51 3.74001C17.4085 3.68465 17.2955 3.65383 17.18 3.65001C16.9349 3.63577 16.6896 3.67325 16.46 3.76001C16.3627 3.76254 16.27 3.80233 16.2012 3.87118C16.1323 3.94003 16.0925 4.03268 16.09 4.13001C16.0913 4.1786 16.1022 4.22647 16.122 4.27086C16.1418 4.31526 16.1701 4.35532 16.2054 4.38875C16.2407 4.42218 16.2822 4.44833 16.3276 4.46571C16.373 4.48308 16.4214 4.49134 16.47 4.49001Z"
            fill="black" />
        <path fill-rule="evenodd" clip-rule="evenodd"
            d="M14.11 3.56001C13.9038 3.53981 13.6962 3.53981 13.49 3.56001C13.49 3.56001 12.11 3.76001 12.13 4.19001C12.13 4.31001 12.08 4.50001 13.34 4.75001C13.4696 4.76479 13.6004 4.76479 13.73 4.75001H14.12C15.49 4.53001 15.4 4.24001 15.4 4.12001C15.4 4.00001 15.28 3.74001 14.11 3.56001Z"
            fill="black" />
        <path fill-rule="evenodd" clip-rule="evenodd"
            d="M10.86 4.1C10.86 3.86 10.75 3.74 9.58 3.56C9.37381 3.54006 9.16619 3.54006 8.96 3.56C8.96 3.56 7.58 3.76 7.6 4.19C7.6 4.31 7.6 4.5 8.81 4.75C8.93958 4.76479 9.07042 4.76479 9.2 4.75H9.59C11 4.51 10.87 4.22 10.86 4.1Z"
            fill="black" />
        <path fill-rule="evenodd" clip-rule="evenodd"
            d="M15.14 10.13C15.14 9.89999 15.03 9.76999 13.86 9.59999C13.6541 9.57507 13.4459 9.57507 13.24 9.59999C13.24 9.59999 11.85 9.78999 11.88 10.23C11.88 10.34 11.83 10.53 13.09 10.78C13.2196 10.7948 13.3504 10.7948 13.48 10.78H13.87C15.24 10.54 15.15 10.26 15.14 10.13Z"
            fill="black" />
        <path fill-rule="evenodd" clip-rule="evenodd"
            d="M10.61 10.13C10.61 9.9 10.5 9.77 9.32 9.6C9.11742 9.5751 8.91257 9.5751 8.71 9.6C8.71 9.6 7.32 9.79 7.34 10.23C7.34 10.34 7.34 10.53 8.56 10.78C8.68624 10.7947 8.81376 10.7947 8.94 10.78C9.07313 10.7903 9.20686 10.7903 9.34 10.78C10.7 10.54 10.62 10.26 10.61 10.13Z"
            fill="black" />
        <path fill-rule="evenodd" clip-rule="evenodd"
            d="M18.61 14.64C18.3115 14.5217 17.9905 14.4705 17.67 14.49C17.4805 14.5095 17.3037 14.5944 17.17 14.73C17.0254 14.8801 16.9312 15.0716 16.9007 15.2778C16.8702 15.484 16.905 15.6945 17 15.88C17 15.9229 17.0086 15.9653 17.0253 16.0048C17.042 16.0443 17.0665 16.08 17.0972 16.1099C17.128 16.1397 17.1645 16.1631 17.2045 16.1786C17.2445 16.1941 17.2871 16.2014 17.33 16.2C17.82 16.2 17.16 15.83 18.66 15.37C18.7528 15.3625 18.8394 15.3202 18.9024 15.2516C18.9655 15.183 19.0003 15.0932 19 15C19.0018 14.9496 18.9926 14.8995 18.9733 14.853C18.9539 14.8065 18.9246 14.7647 18.8876 14.7305C18.8506 14.6963 18.8066 14.6705 18.7587 14.6549C18.7108 14.6393 18.6601 14.6342 18.61 14.64Z"
            fill="black" />
        <path fill-rule="evenodd" clip-rule="evenodd"
            d="M21.72 14.64C21.5167 14.5142 21.278 14.458 21.04 14.48C20.7735 14.537 20.5125 14.6173 20.26 14.72C20.218 14.7173 20.1758 14.7229 20.1359 14.7365C20.0961 14.7502 20.0593 14.7715 20.0277 14.7994C19.9961 14.8273 19.9703 14.8611 19.9518 14.899C19.9334 14.9368 19.9225 14.9779 19.92 15.02C19.9173 15.062 19.9229 15.1042 19.9365 15.1441C19.9502 15.1839 19.9715 15.2207 19.9994 15.2523C20.0273 15.2839 20.0611 15.3097 20.099 15.3281C20.1368 15.3466 20.1779 15.3575 20.22 15.36C21.49 15.9 21.44 15.66 21.56 15.9C21.566 15.9472 21.5816 15.9926 21.6057 16.0335C21.6299 16.0745 21.6621 16.1101 21.7005 16.1381C21.7389 16.1662 21.7825 16.1862 21.8289 16.1968C21.8752 16.2074 21.9232 16.2085 21.97 16.2C22.0647 16.1851 22.15 16.1341 22.2078 16.0576C22.2656 15.9811 22.2915 15.8852 22.28 15.79C22.3197 15.5638 22.287 15.3307 22.1864 15.1242C22.0859 14.9177 21.9226 14.7482 21.72 14.64Z"
            fill="black" />
        <path fill-rule="evenodd" clip-rule="evenodd"
            d="M17.36 19.1C17.4985 19.1828 17.659 19.2212 17.82 19.21C18.0749 19.1831 18.3263 19.1295 18.57 19.05C18.6564 19.0356 18.735 18.9911 18.7916 18.9242C18.8483 18.8574 18.8794 18.7726 18.8794 18.685C18.8794 18.5974 18.8483 18.5126 18.7916 18.4458C18.735 18.3789 18.6564 18.3344 18.57 18.32C18.08 18.17 17.85 18.32 17.7 17.74C17.7056 17.6979 17.7028 17.6552 17.6917 17.6142C17.6806 17.5732 17.6614 17.5349 17.6354 17.5014C17.6093 17.4679 17.5769 17.4399 17.5399 17.419C17.5029 17.3982 17.4622 17.3849 17.42 17.38C17.334 17.3716 17.2481 17.3972 17.1807 17.4514C17.1134 17.5057 17.0701 17.5841 17.06 17.67C17 17.78 16.96 17.89 16.9 18.02C16.84 18.15 16.9 18.24 16.84 18.36C16.8494 18.5195 16.903 18.6732 16.9949 18.8039C17.0867 18.9346 17.2131 19.0371 17.36 19.1Z"
            fill="black" />
        <path fill-rule="evenodd" clip-rule="evenodd"
            d="M20.16 19.07C20.3877 19.1819 20.6254 19.2723 20.87 19.34C21.0724 19.3791 21.282 19.3546 21.47 19.27C21.92 19.07 22.26 18.76 22.15 18.2C22.1556 18.1527 22.1517 18.1047 22.1385 18.0589C22.1254 18.0131 22.1033 17.9703 22.0736 17.9331C22.0438 17.8959 22.0069 17.865 21.9651 17.8421C21.9233 17.8193 21.8774 17.805 21.83 17.8C21.46 17.8 21.83 18.09 20.89 18.3C20.6409 18.323 20.3936 18.3631 20.15 18.42C20.0736 18.4334 20.0043 18.4734 19.9545 18.5328C19.9046 18.5923 19.8772 18.6674 19.8772 18.745C19.8772 18.8226 19.9046 18.8977 19.9545 18.9571C20.0043 19.0166 20.0736 19.0565 20.15 19.07H20.16Z"
            fill="black" />
        <path fill-rule="evenodd" clip-rule="evenodd"
            d="M14.06 15C12.55 14.87 11.06 14.73 9.51 14.66C8.86 14.66 8.22 14.6 7.56 14.59H5.61C4.13 14.59 2.66 14.74 1.17 14.82V12.09C1.17 11.35 1.17 10.6 1.25 9.86C1.33 9.12 1.34 8.37 1.4 7.62C1.52526 5.87816 1.77254 4.14725 2.14 2.44C2.1646 2.34852 2.15216 2.25103 2.10536 2.16866C2.05856 2.0863 1.98118 2.0257 1.89 2C1.84403 1.98799 1.79614 1.9852 1.74909 1.99179C1.70204 1.99837 1.65676 2.01421 1.61586 2.03838C1.57496 2.06255 1.53924 2.09457 1.51078 2.13261C1.48231 2.17065 1.46165 2.21394 1.45 2.26C0.923362 3.97735 0.528878 5.73247 0.27 7.51C0.16 8.27 0.0899995 9 -4.67524e-07 9.8C-0.0399982 10.5695 -0.0399982 11.3405 -4.67524e-07 12.11C-4.67524e-07 12.24 0.3 17.83 1 17.8C1.46 17.8 1.93 17.8 2.39 17.87C3.5 17.96 4.6 18.13 5.69 18.25C6.33 18.25 6.97 18.31 7.62 18.34L6.75 20C6.63237 20.2164 6.52882 20.4402 6.44 20.67C6.38698 20.7956 6.37686 20.9353 6.41121 21.0672C6.44556 21.1992 6.52246 21.3162 6.63 21.4C6.88784 21.5758 7.18163 21.692 7.49 21.74C8.03406 21.8054 8.58235 21.8288 9.13 21.81H13.31C13.5 21.81 14.04 21.36 13.98 21.11C14.0009 20.777 14.0009 20.443 13.98 20.11C13.9678 19.9742 13.941 19.8401 13.9 19.71C13.8605 19.5762 13.8103 19.4458 13.75 19.32C13.6053 19.0222 13.4347 18.7378 13.24 18.47C13.2243 18.4253 13.1999 18.3842 13.1683 18.3489C13.1367 18.3136 13.0984 18.285 13.0557 18.2645C13.0129 18.2441 12.9666 18.2323 12.9193 18.2298C12.872 18.2273 12.8246 18.2342 12.78 18.25C12.689 18.2838 12.6149 18.352 12.5738 18.44C12.5326 18.5279 12.5277 18.6285 12.56 18.72C12.61 19.04 12.61 19.33 12.65 19.65C12.6587 19.7822 12.6822 19.913 12.72 20.04C12.7499 20.1677 12.7935 20.2917 12.85 20.41C12.9554 20.63 13.0792 20.8408 13.22 21.04C12.43 20.92 11.63 20.81 10.83 20.72C10.27 20.66 9.7 20.62 9.14 20.58H7.86H7.72C7.71467 20.5168 7.71467 20.4532 7.72 20.39L8.34 18.39H8.92C10.57 18.39 12.21 18.3 13.86 18.16C13.9464 18.1456 14.025 18.1011 14.0816 18.0342C14.1383 17.9674 14.1694 17.8826 14.1694 17.795C14.1694 17.7074 14.1383 17.6226 14.0816 17.5558C14.025 17.4889 13.9464 17.4444 13.86 17.43C13.05 17.43 12.24 17.43 11.43 17.36C10.62 17.29 9.53 17.23 8.59 17.18C7.65 17.13 6.69 17.1 5.73 17.06C4.77 17.02 3.83 17.06 2.88 17.06C2.35 17.06 1.88 17.06 1.31 17.15C1.26 16.6 1.24 16.05 1.22 15.5C2.69 15.6 4.14 15.72 5.61 15.79C6.26 15.79 6.91 15.79 7.61 15.84H9.49C11 15.84 12.49 15.77 14.03 15.76C14.1164 15.7456 14.195 15.7011 14.2516 15.6342C14.3083 15.5674 14.3394 15.4826 14.3394 15.395C14.3394 15.3074 14.3083 15.2226 14.2516 15.1558C14.195 15.0889 14.1164 15.0444 14.03 15.03L14.06 15Z"
            fill="black" />
    </g>
    <defs>
        <clipPath id="clip0_1034_4546">
            <rect width="24" height="24" fill="white" />
        </clipPath>
    </defs>
</svg>
    