<svg viewBox="0 0 24 24" fill="none" xmlns="http://www.w3.org/2000/svg">
    <g clip-path="url(#clip0_3005_1481)">
        <path fill-rule="evenodd" clip-rule="evenodd"
            d="M6.67717 14.5226C6.73446 14.5226 6.7894 14.4999 6.8299 14.4594C6.87041 14.4189 6.89317 14.3639 6.89317 14.3066C6.89317 14.2493 6.87041 14.1944 6.8299 14.1539C6.7894 14.1134 6.73446 14.0906 6.67717 14.0906C6.28117 14.0726 4.33717 12.4826 4.03717 12.2306C3.73717 11.9786 3.73717 12.1526 3.94717 11.9426C4.15717 11.7326 4.41517 11.5646 4.50517 11.4866C5.22101 10.7973 5.99823 10.1747 6.82717 9.62663C6.87173 9.60117 6.90434 9.55905 6.91785 9.50954C6.93135 9.46003 6.92463 9.40719 6.89917 9.36263C6.87371 9.31808 6.83159 9.28546 6.78208 9.27196C6.73257 9.25845 6.67973 9.26517 6.63517 9.29063C5.36154 9.93351 4.18412 10.7514 3.13717 11.7206C3.07087 11.8039 3.02675 11.9026 3.00891 12.0075C2.99107 12.1124 3.00011 12.2201 3.03517 12.3206C3.19717 12.6446 6.07717 14.5466 6.67717 14.5226Z"
            fill="black" />
        <path fill-rule="evenodd" clip-rule="evenodd"
            d="M7.78117 15.2966C8.44717 13.1606 9.88717 11.3066 10.2892 8.25861C10.2988 8.23249 10.3027 8.20458 10.3005 8.17681C10.2983 8.14905 10.2901 8.1221 10.2764 8.09782C10.2628 8.07355 10.244 8.05254 10.2214 8.03626C10.1988 8.01997 10.1729 8.00879 10.1456 8.0035C10.1182 7.99821 10.0901 7.99893 10.063 8.00561C10.036 8.01229 10.0107 8.02478 9.989 8.0422C9.96727 8.05962 9.94959 8.08156 9.93719 8.10649C9.92478 8.13143 9.91795 8.15877 9.91717 8.18661C9.43717 10.1066 7.94317 12.3866 7.36117 15.1886C7.35408 15.2162 7.35249 15.2449 7.35649 15.2731C7.36049 15.3013 7.37001 15.3284 7.38449 15.3529C7.39898 15.3774 7.41815 15.3989 7.44092 15.416C7.46368 15.4331 7.48959 15.4455 7.51717 15.4526C7.54475 15.4597 7.57345 15.4613 7.60165 15.4573C7.62984 15.4533 7.65697 15.4438 7.68148 15.4293C7.70599 15.4148 7.72742 15.3956 7.74452 15.3729C7.76163 15.3501 7.77408 15.3242 7.78117 15.2966Z"
            fill="black" />
        <path fill-rule="evenodd" clip-rule="evenodd"
            d="M11.4172 9.42265C11.3774 9.39082 11.3266 9.3761 11.276 9.38173C11.2253 9.38736 11.179 9.41287 11.1472 9.45265C11.1153 9.49243 11.1006 9.54323 11.1062 9.59386C11.1119 9.6445 11.1374 9.69082 11.1772 9.72265C11.4352 9.95065 13.4572 11.7446 13.6372 12.0326C12.9832 12.8306 10.5292 14.3126 10.5412 14.3666C10.4879 14.3831 10.4428 14.419 10.4148 14.4673C10.3868 14.5155 10.3779 14.5725 10.39 14.6269C10.4021 14.6813 10.4343 14.7292 10.48 14.761C10.5258 14.7929 10.5819 14.8063 10.6372 14.7986C10.8652 14.7626 14.1232 12.9986 14.4112 12.1346C14.5852 11.5826 13.3372 10.8026 11.4172 9.42265Z"
            fill="black" />
        <path fill-rule="evenodd" clip-rule="evenodd"
            d="M23.26 13C22.8922 11.8623 22.3081 10.8063 21.54 9.89002C20.8167 8.98171 19.8863 8.25987 18.8268 7.7849C17.7672 7.30993 16.6093 7.09566 15.45 7.16002L15.33 3.70002C15.3406 3.17487 15.2835 2.65055 15.16 2.14002C15.0522 1.7523 14.8332 1.40466 14.53 1.14002C14.0469 0.733211 13.4691 0.454641 12.85 0.330018C12.0139 0.164223 11.1622 0.0904501 10.31 0.110018L6.48001 0.0500184C5.36159 -0.0342509 4.23842 -0.0342509 3.12001 0.0500184C2.54543 0.10935 1.99683 0.319821 1.53001 0.660018C0.994466 1.1766 0.643172 1.85459 0.530007 2.59002C0.29071 4.04715 0.226922 5.52771 0.340007 7.00002C0.340007 7.80002 0.400007 8.57002 0.410007 9.33002C0.410007 11.13 0.410007 12.88 0.460007 14.81C0.460007 15.99 0.460007 17.22 0.570007 18.44C0.620007 19.27 0.690007 20.09 0.810007 20.88C0.853261 21.2511 0.983606 21.6066 1.19041 21.9177C1.39722 22.2288 1.67462 22.4865 2.00001 22.67C2.89302 23.0868 3.87648 23.2725 4.86001 23.21H7.86001C9.01001 23.21 9.98001 23.21 10.86 23.15C11.802 23.1492 12.7433 23.0992 13.68 23C14.1757 22.9709 14.652 22.797 15.05 22.5C15.3832 22.1354 15.6082 21.6853 15.7 21.2C15.8051 20.7498 15.872 20.2915 15.9 19.83L16.25 20.02C16.3118 20.0683 16.3632 20.1287 16.401 20.1975C16.4388 20.2662 16.4623 20.3419 16.47 20.42C16.5403 20.79 16.5403 21.17 16.47 21.54C16.4301 22.1707 16.1922 22.7726 15.79 23.26C15.7565 23.2896 15.7292 23.3254 15.7095 23.3655C15.6899 23.4056 15.6784 23.4492 15.6756 23.4938C15.6728 23.5384 15.6788 23.5831 15.6933 23.6253C15.7078 23.6676 15.7305 23.7065 15.76 23.74C15.7896 23.7735 15.8254 23.8008 15.8655 23.8205C15.9056 23.8401 15.9492 23.8516 15.9938 23.8544C16.0384 23.8572 16.083 23.8512 16.1253 23.8367C16.1675 23.8222 16.2065 23.7996 16.24 23.77C16.8866 23.0663 17.2745 22.1635 17.34 21.21C17.4132 20.8497 17.3928 20.4767 17.2808 20.1266C17.1687 19.7764 16.9688 19.4609 16.7 19.21C15.6177 18.5912 14.5786 17.8996 13.59 17.14C12.96 16.61 12.41 16.08 12.37 15.5C12.22 14.12 12.83 13.42 13.71 13.38C14.265 13.39 14.8098 13.5311 15.2999 13.7917C15.79 14.0524 16.2115 14.4253 16.53 14.88C16.5475 14.924 16.5752 14.9631 16.6107 14.9943C16.6462 15.0255 16.6886 15.0479 16.7345 15.0596C16.7803 15.0713 16.8282 15.072 16.8744 15.0617C16.9205 15.0513 16.9636 15.0302 17 15C17.0331 14.979 17.0615 14.9513 17.0832 14.9187C17.105 14.8861 17.1196 14.8492 17.1262 14.8106C17.1328 14.7719 17.1312 14.7323 17.1215 14.6943C17.1118 14.6563 17.0943 14.6208 17.07 14.59C16.7138 14.0374 16.2474 13.5642 15.7 13.2L15.5 7.76002C16.5295 7.78393 17.5392 8.04767 18.4488 8.53027C19.3585 9.01287 20.143 9.70102 20.74 10.54C21.3789 11.3842 21.8692 12.3311 22.19 13.34C22.5174 14.3427 22.6597 15.3965 22.61 16.45C22.547 17.6433 22.3932 18.8301 22.15 20C21.9375 21.1914 21.6024 22.3576 21.15 23.48C21.1225 23.5209 21.1043 23.5673 21.0965 23.6159C21.0887 23.6646 21.0916 23.7143 21.105 23.7618C21.1183 23.8092 21.1418 23.8531 21.1739 23.8906C21.2059 23.928 21.2456 23.958 21.2904 23.9786C21.3352 23.9991 21.3839 24.0097 21.4332 24.0096C21.4824 24.0095 21.5311 23.9986 21.5757 23.9778C21.6204 23.957 21.66 23.9268 21.6918 23.8892C21.7236 23.8516 21.7469 23.8075 21.76 23.76C22.2921 22.6285 22.7076 21.4457 23 20.23C23.3127 19.0049 23.5333 17.7581 23.66 16.5C23.7524 15.3185 23.6166 14.1302 23.26 13ZM3.71001 1.13002C4.65001 1.05002 5.71001 1.13002 6.46001 1.13002H10.33C11.1128 1.09235 11.8973 1.13929 12.67 1.27002H12.82C12.8289 1.34643 12.8289 1.42361 12.82 1.50002C12.74 1.79002 12.59 2.10002 12.53 2.33002C12.4273 2.62537 12.2897 2.90737 12.12 3.17002C11.9997 3.38706 11.8626 3.59435 11.71 3.79002H11.51C11.16 3.79002 10.62 3.74002 10.03 3.70002L7.73001 3.55002C7.397 3.52916 7.06301 3.52916 6.73001 3.55002C6.41001 3.55002 6.10001 3.61002 5.79001 3.66002C5.46052 3.73094 5.1263 3.77773 4.79001 3.80002C4.62837 3.8085 4.46708 3.77761 4.32001 3.71002C4.1378 3.56723 3.99356 3.38177 3.90001 3.17002C3.56001 2.58002 3.22001 1.78002 2.90001 1.25002C3.16738 1.19395 3.43786 1.15388 3.71001 1.13002ZM12.84 12.65C11.89 12.98 11.19 13.92 11.27 15.6C11.3819 16.3804 11.777 17.0923 12.38 17.6C13.2503 18.353 14.211 18.9946 15.24 19.51C15.2038 20.0292 15.1235 20.5444 15 21.05C14.9288 21.4042 14.7629 21.7325 14.52 22C14.1094 22.2324 13.6412 22.3434 13.17 22.32C12.27 22.39 11.26 22.32 10.69 22.32H7.76001C6.89001 22.32 5.92001 22.32 4.83001 22.26C4.01469 22.3125 3.19936 22.1576 2.46001 21.81C2.26634 21.6911 2.10428 21.5272 1.98762 21.3322C1.87097 21.1372 1.80317 20.9169 1.79001 20.69C1.69001 19.92 1.63001 19.13 1.60001 18.33C1.55001 17.13 1.55001 15.91 1.55001 14.74V10.04C1.55001 9.04002 1.55001 7.97002 1.48001 6.89002C1.40214 5.71019 1.42556 4.52585 1.55001 3.35002C1.56467 2.67316 1.80785 2.02116 2.24001 1.50002L2.32001 1.45002C2.57001 2.01002 2.86001 2.88002 3.17001 3.52002C3.32109 3.89517 3.56966 4.22314 3.89001 4.47002C4.15938 4.63314 4.46541 4.72598 4.78001 4.74002C5.16124 4.74601 5.54237 4.72261 5.92001 4.67002H6.92001H7.58001C8.42001 4.67002 10.03 4.82002 11.02 4.79002C11.316 4.78757 11.611 4.75405 11.9 4.69002C12.0216 4.66293 12.1307 4.59607 12.21 4.50002C12.4288 4.18745 12.6132 3.85218 12.76 3.50002C12.9283 3.15953 13.0559 2.80039 13.14 2.43002C13.14 2.20002 13.29 1.89002 13.34 1.60002V1.40002C13.5399 1.47071 13.726 1.5756 13.89 1.71002C14.077 1.86889 14.2098 2.08212 14.27 2.32002C14.3854 2.75367 14.4392 3.20138 14.43 3.65002L14.97 12.8C14.3024 12.4905 13.5444 12.4371 12.84 12.65Z"
            fill="black" />
    </g>
    <defs>
        <clipPath id="clip0_3005_1481">
            <rect width="24" height="24" fill="white" />
        </clipPath>
    </defs>
</svg>
    