<svg viewBox="0 0 24 24" fill="none" xmlns="http://www.w3.org/2000/svg">
    <g clip-path="url(#clip0_1050_8198)">
        <path
            d="M7.9 11.43H7.81C6.44 6.73 6.71 7.09 6.45 6.84C6.40311 6.7942 6.34252 6.76502 6.27749 6.75691C6.21245 6.7488 6.14655 6.76221 6.08985 6.79509C6.03316 6.82798 5.98879 6.87852 5.96354 6.939C5.93828 6.99948 5.93353 7.06656 5.95 7.13C7.3 12.92 6.87 11.2 6.95 11.52C6.99879 11.7474 7.12533 11.9507 7.30785 12.0949C7.49037 12.2391 7.71745 12.3152 7.95 12.31C9.8762 12.4018 11.8061 12.3818 13.73 12.25C14.24 12.2 15.58 12.52 15.94 11.71C16.3443 10.6076 16.626 9.46404 16.78 8.3C16.8868 7.8933 16.9603 7.4786 17 7.06C17.0361 6.84125 17.0058 6.61671 16.9132 6.41531C16.8205 6.21391 16.6696 6.04488 16.48 5.93C16.105 5.8353 15.7242 5.76515 15.34 5.72H14.29V5.04C14.2061 4.46144 13.9381 3.92529 13.5256 3.51101C13.1132 3.09673 12.5782 2.82637 12 2.74C11.4172 2.68224 10.8293 2.77163 10.29 3C9.7606 3.23724 9.3198 3.63582 9.03062 4.13873C8.74145 4.64164 8.61872 5.22312 8.68 5.8C8.08 5.8 7.48 5.87 6.9 5.88C6.80982 5.88 6.72334 5.91582 6.65958 5.97958C6.59582 6.04334 6.56 6.12982 6.56 6.22C6.56 6.87 7.56 6.44 11.88 6.51C13.01 6.51 15.15 6.72 15.23 6.73C15.4688 6.7556 15.7018 6.81976 15.92 6.92C15.8667 7.30777 15.7763 7.68952 15.65 8.06C15.4835 9.0753 15.2462 10.0777 14.94 11.06C14.84 11.06 14.63 11.14 14.46 11.14H13.58C12.87 11.22 8.38 11.53 7.9 11.43ZM11.9 5.63C9.13 5.7 9.33 5.89 9.35 5.63C9.43 4.75 10.35 3.78 11.99 3.88C12.3399 3.93585 12.6674 4.08796 12.9359 4.31931C13.2043 4.55066 13.4031 4.85213 13.51 5.19L13.58 5.67C13 5.62 12.44 5.61 11.88 5.63H11.9Z"
            fill="black" />
        <path
            d="M10.2 8C10.1873 7.93107 10.1508 7.86877 10.0969 7.82394C10.043 7.7791 9.9751 7.75455 9.905 7.75455C9.8349 7.75455 9.76701 7.7791 9.71312 7.82394C9.65923 7.86877 9.62275 7.93107 9.61 8C9.47128 8.37454 9.43429 8.77914 9.50279 9.17262C9.5713 9.5661 9.74286 9.93439 10 10.24C10.032 10.3162 10.0907 10.3782 10.1651 10.4142C10.2395 10.4503 10.3245 10.458 10.4042 10.4359C10.4839 10.4139 10.5528 10.3635 10.598 10.2943C10.6433 10.2251 10.6617 10.1418 10.65 10.06C10.57 8.06 10.42 8.64 10.2 8Z"
            fill="black" />
        <path
            d="M12.67 10.51C13.0401 10.1784 13.3095 9.74933 13.4474 9.27191C13.5853 8.79449 13.5862 8.2879 13.45 7.80999C13.4332 7.73359 13.3872 7.66678 13.3218 7.62381C13.2564 7.58085 13.1768 7.56512 13.1 7.57999C12.8052 7.93816 12.586 8.35225 12.4554 8.79734C12.3248 9.24243 12.2855 9.70934 12.34 10.17C12.34 10.2585 12.3744 10.3435 12.436 10.4069C12.4976 10.4704 12.5816 10.5074 12.67 10.51Z"
            fill="black" />
        <path
            d="M23.63 5.70999C23.51 4.55999 23.55 2.19999 22.72 1.55999C20.8 0.0699905 16.59 0.469991 13.91 0.359991C10.39 0.209991 6.78 0.499991 3.3 0.599991C3.22108 0.613677 3.14952 0.654788 3.09795 0.716075C3.04637 0.777363 3.01809 0.854891 3.01809 0.934991C3.01809 1.01509 3.04637 1.09262 3.09795 1.15391C3.14952 1.21519 3.22108 1.2563 3.3 1.26999C6.77 1.21999 10.36 0.989991 13.86 1.18999C16.32 1.32999 20.53 1.05999 22.11 2.31999C22.51 2.63999 22.52 4.98999 22.6 5.80999C22.9365 8.72563 22.9633 11.6687 22.68 14.59C22.6329 15.5666 22.482 16.5353 22.23 17.48C19.87 18.77 2.61 19.88 1.53 18.02C1.2323 17.0384 1.05434 16.0243 0.999999 15H1.07C1.50089 14.9349 1.93911 14.9349 2.37 15H8C10.57 15 14.34 14.77 16.4 14.82C17.8206 14.7754 19.2425 14.8055 20.66 14.91C20.74 14.91 21.55 14.17 19.32 14.11C14.51 13.77 12.32 13.47 2.41 14.31C1.93104 14.2681 1.44846 14.3018 0.979999 14.41C0.679999 11.1 0.689999 9.40999 1.34 2.34999C1.33246 2.13471 1.38069 1.92114 1.48 1.72999C1.52333 1.67222 1.54436 1.60076 1.53924 1.52872C1.53412 1.45669 1.50319 1.38892 1.45213 1.33786C1.40107 1.2868 1.3333 1.25586 1.26127 1.25075C1.18923 1.24563 1.11777 1.26666 1.06 1.30999C0.629999 1.71999 0.709999 3.05999 0.639999 3.52999C0.569999 3.99999 0.499999 4.56999 0.439999 5.09999C0.0429892 7.90137 -0.077591 10.735 0.0799989 13.56C0.105624 15.2176 0.330573 16.8661 0.749999 18.47C1.54 19.92 6.52 20.03 8.25 20.06C7.75583 20.8395 7.53426 21.761 7.62 22.68L5.47 22.84C5.42672 22.832 5.3822 22.8336 5.33961 22.8447C5.29703 22.8559 5.25741 22.8762 5.22357 22.9044C5.18974 22.9325 5.16251 22.9678 5.14383 23.0076C5.12514 23.0475 5.11546 23.091 5.11546 23.135C5.11546 23.179 5.12514 23.2225 5.14383 23.2623C5.16251 23.3022 5.18974 23.3374 5.22357 23.3656C5.25741 23.3938 5.29703 23.4141 5.33961 23.4252C5.3822 23.4364 5.42672 23.438 5.47 23.43C8.08423 23.643 10.7083 23.7098 13.33 23.63C14.71 23.57 16.13 23.41 17.56 23.3C17.6088 23.3085 17.6589 23.3061 17.7068 23.2932C17.7546 23.2803 17.7991 23.2571 17.837 23.2251C17.8749 23.1932 17.9054 23.1534 17.9263 23.1085C17.9473 23.0635 17.9581 23.0146 17.9581 22.965C17.9581 22.9154 17.9473 22.8665 17.9263 22.8215C17.9054 22.7766 17.8749 22.7368 17.837 22.7048C17.7991 22.6729 17.7546 22.6497 17.7068 22.6368C17.6589 22.6238 17.6088 22.6215 17.56 22.63H15.72C15.5831 21.6772 15.3138 20.7483 14.92 19.87C16.31 19.77 22.47 19.3 23.21 18.13C23.3909 17.7771 23.5061 17.3942 23.55 17C24.1222 13.2603 24.1491 9.45741 23.63 5.70999ZM14.92 22.59C11.82 22.52 10.5 22.52 8.38 22.59C8.7939 21.7935 9.04865 20.9239 9.13 20.03C10.8 20.03 12.4 19.98 13.93 19.88C14.043 20.8484 14.3822 21.7767 14.92 22.59Z"
            fill="black" />
        <path
            d="M11.93 15.9C11.08 15.45 10.04 16.32 10.8 17.09C10.893 17.1778 11.0032 17.2454 11.1236 17.2887C11.244 17.332 11.372 17.35 11.4996 17.3415C11.6273 17.3331 11.7518 17.2984 11.8654 17.2396C11.979 17.1808 12.0793 17.0993 12.16 17C12.2503 16.8174 12.2768 16.6097 12.2351 16.4102C12.1934 16.2108 12.0859 16.0311 11.93 15.9Z"
            fill="black" />
    </g>
    <defs>
        <clipPath id="clip0_1050_8198">
            <rect width="24" height="24" fill="white" />
        </clipPath>
    </defs>
</svg>
    