<svg viewBox="0 0 24 24" fill="none" xmlns="http://www.w3.org/2000/svg">
    <g clip-path="url(#clip0_1034_4767)">
        <path fill-rule="evenodd" clip-rule="evenodd"
            d="M23.63 5.69999C23.5 4.54999 23.56 2.19999 22.72 1.54999C20.81 0.0699937 16.62 0.469994 13.91 0.349994C10.39 0.209994 6.78 0.489994 3.3 0.589994C3.20983 0.589994 3.12335 0.625815 3.05958 0.689578C2.99582 0.75334 2.96 0.83982 2.96 0.929994C2.96 1.02017 2.99582 1.10665 3.05958 1.17041C3.12335 1.23417 3.20983 1.26999 3.3 1.26999C6.76 1.21999 10.3 0.989994 13.85 1.18999C16.31 1.32999 20.52 1.04999 22.1 2.31999C22.5 2.63999 22.51 4.98999 22.59 5.80999C22.9265 8.72229 22.9533 11.662 22.67 14.58C22.6226 15.5598 22.4718 16.5319 22.22 17.48C19.9 18.78 2.61 19.86 1.55 18C1.24644 17.0258 1.06176 16.0185 0.999999 15C2.28 14.74 4.19 15.14 12.18 14.88C18.08 14.68 19.7 14.88 20.62 14.88C20.68 14.88 20.93 14.38 20.62 14.23H20.57H20.49C14.96 13.66 11.12 13.81 2.34 14.32C1.89132 14.2885 1.44044 14.3188 0.999999 14.41C0.702139 11.3286 0.735664 8.22421 1.1 5.14999C1.1 4.63999 1.19 4.14999 1.26 3.60999C1.25275 2.97379 1.32328 2.33909 1.47 1.71999C1.82 1.36999 0.979999 0.619994 0.759999 2.05999C0.679999 2.56999 0.679999 3.24999 0.639999 3.51999C0.559999 4.04999 0.499999 4.56999 0.449999 5.08999C0.0427199 7.89375 -0.0812385 10.7314 0.0799991 13.56C0.105624 15.2176 0.330574 16.8661 0.749999 18.47C1.54 19.92 6.52 20.03 8.25 20.06C7.75445 20.8352 7.53267 21.7541 7.62 22.67C6.85 22.73 6.13 22.8 5.47 22.83C5.39043 22.83 5.31413 22.8616 5.25787 22.9179C5.20161 22.9741 5.17 23.0504 5.17 23.13C5.17 23.2096 5.20161 23.2859 5.25787 23.3421C5.31413 23.3984 5.39043 23.43 5.47 23.43C11.3 23.63 9.27 23.94 17.56 23.3C17.6502 23.3 17.7367 23.2642 17.8004 23.2004C17.8642 23.1366 17.9 23.0502 17.9 22.96C17.9 22.8698 17.8642 22.7833 17.8004 22.7196C17.7367 22.6558 17.6502 22.62 17.56 22.62H15.72C15.5856 21.6699 15.3162 20.7439 14.92 19.87C17.2005 19.7247 19.4649 19.3902 21.69 18.87C23.13 18.48 23.38 18.09 23.57 16.95C24.1316 13.2225 24.1519 9.43332 23.63 5.69999ZM14.92 22.59C12.19 22.53 10.74 22.5 8.38 22.59C8.7939 21.7935 9.04865 20.9239 9.13 20.03C10.8 20.03 12.4 19.97 13.93 19.88C14.0463 20.8477 14.3851 21.7752 14.92 22.59Z"
            fill="black" />
        <path fill-rule="evenodd" clip-rule="evenodd"
            d="M11.93 15.9C11.08 15.45 10.04 16.32 10.8 17.09C10.8923 17.1792 11.0023 17.2481 11.1228 17.2922C11.2434 17.3363 11.3718 17.3548 11.4999 17.3463C11.628 17.3378 11.7529 17.3026 11.8666 17.243C11.9803 17.1833 12.0802 17.1006 12.16 17C12.254 16.8181 12.2825 16.6095 12.2406 16.4091C12.1987 16.2087 12.089 16.0289 11.93 15.9Z"
            fill="black" />
        <path fill-rule="evenodd" clip-rule="evenodd"
            d="M2.62 7.38998C2.93 10.92 2.85 11.03 3.26 11.45C3.31355 11.5315 3.38559 11.5993 3.47026 11.6478C3.55494 11.6962 3.64986 11.724 3.7473 11.7289C3.84474 11.7338 3.94196 11.7156 4.03105 11.6758C4.12014 11.636 4.19858 11.5758 4.26 11.5C4.62657 10.7577 4.85367 9.95435 4.93 9.12998C5.79 10.34 6.22 11.07 6.64 11.27C6.74409 11.3316 6.86222 11.3657 6.98316 11.3689C7.10411 11.372 7.22386 11.3443 7.33105 11.2882C7.43824 11.2321 7.52932 11.1495 7.59564 11.0483C7.66196 10.9471 7.70133 10.8307 7.71 10.71C7.74301 10.3274 7.74301 9.94261 7.71 9.55998C7.79 5.82998 7.91 4.48998 7.41 4.66998C7 4.50998 7 5.51998 7 6.49998C7 6.41998 6.72 9.28998 6.79 9.91998C6.79 9.91998 5.67 7.42998 5.55 7.19998C5.50032 7.08903 5.4196 6.99481 5.31757 6.9287C5.21554 6.8626 5.09657 6.82742 4.975 6.82742C4.85343 6.82742 4.73445 6.8626 4.63242 6.9287C4.5304 6.99481 4.44968 7.08903 4.4 7.19998C4.08761 7.97821 3.85313 8.78549 3.7 9.60998L3.31 7.25998C3.08 6.23998 3 5.48998 3 5.42998C2.79 4.86998 2.32 4.81998 2.4 5.65998C2.44 5.99998 2.6 7.19998 2.62 7.38998Z"
            fill="black" />
        <path fill-rule="evenodd" clip-rule="evenodd"
            d="M12 7.19998C11.9503 7.08903 11.8696 6.99481 11.7676 6.9287C11.6655 6.8626 11.5466 6.82742 11.425 6.82742C11.3034 6.82742 11.1845 6.8626 11.0824 6.9287C10.9804 6.99481 10.8997 7.08903 10.85 7.19998C10.5523 7.98156 10.3247 8.78807 10.17 9.60998L9.78 7.25998C9.55 6.25998 9.5 5.48998 9.47 5.42998C9.27 4.86998 8.8 4.81998 8.88 5.65998C8.88 5.98998 9.06 7.19998 9.09 7.38998C9.4 10.92 9.32 11.03 9.73 11.45C9.78355 11.5315 9.85559 11.5993 9.94026 11.6478C10.0249 11.6962 10.1199 11.724 10.2173 11.7289C10.3147 11.7338 10.412 11.7156 10.501 11.6758C10.5901 11.636 10.6686 11.5758 10.73 11.5C11.0885 10.7546 11.3152 9.95275 11.4 9.12998C12.26 10.34 12.69 11.07 13.1 11.27C13.2043 11.334 13.3235 11.37 13.4458 11.3744C13.5682 11.3788 13.6896 11.3516 13.7983 11.2952C13.9069 11.2388 13.9992 11.1553 14.0661 11.0528C14.133 10.9503 14.1722 10.8322 14.18 10.71C14.213 10.3274 14.213 9.94261 14.18 9.55998C14.26 5.82998 14.37 4.48998 13.88 4.66998C13.46 4.50998 13.54 5.51998 13.5 6.49998C13.5 6.41998 13.22 9.28998 13.29 9.91998C13.25 9.91998 12.13 7.42998 12 7.19998Z"
            fill="black" />
        <path fill-rule="evenodd" clip-rule="evenodd"
            d="M18.47 7.19998C18.4203 7.08903 18.3396 6.99481 18.2376 6.9287C18.1355 6.8626 18.0166 6.82742 17.895 6.82742C17.7734 6.82742 17.6545 6.8626 17.5524 6.9287C17.4504 6.99481 17.3697 7.08903 17.32 7.19998C17.0223 7.98156 16.7947 8.78807 16.64 9.60998L16.25 7.25998C16.02 6.25998 15.97 5.48998 15.94 5.42998C15.74 4.86998 15.27 4.81998 15.35 5.65998C15.35 5.98998 15.53 7.19998 15.56 7.38998C15.87 10.92 15.79 11.03 16.19 11.45C16.2449 11.5298 16.3174 11.5959 16.402 11.6431C16.4866 11.6903 16.5809 11.7174 16.6776 11.7222C16.7744 11.7271 16.8709 11.7095 16.9598 11.671C17.0486 11.6324 17.1274 11.5739 17.19 11.5C17.5485 10.7546 17.7752 9.95275 17.86 9.12998C18.72 10.34 19.15 11.07 19.56 11.27C19.6643 11.334 19.7835 11.37 19.9058 11.3744C20.0282 11.3788 20.1496 11.3516 20.2583 11.2952C20.3669 11.2388 20.4592 11.1553 20.5261 11.0528C20.593 10.9503 20.6322 10.8322 20.64 10.71C20.673 10.3274 20.673 9.94261 20.64 9.55998C20.72 5.82998 20.83 4.48998 20.34 4.66998C19.92 4.50998 20 5.51998 19.96 6.49998C19.96 6.41998 19.68 9.28998 19.75 9.91998C19.72 9.91998 18.59 7.42998 18.47 7.19998Z"
            fill="black" />
    </g>
    <defs>
        <clipPath id="clip0_1034_4767">
            <rect width="24" height="24" fill="white" />
        </clipPath>
    </defs>
</svg>
    